<?xml version="1.0" encoding="UTF-8" standalone="no"?><!DOCTYPE svg PUBLIC "-//W3C//DTD SVG 1.1//EN" "http://www.w3.org/Graphics/SVG/1.1/DTD/svg11.dtd"><svg width="100%" height="100%" viewBox="0 0 1024 1024" version="1.1" xmlns="http://www.w3.org/2000/svg" xmlns:xlink="http://www.w3.org/1999/xlink" xml:space="preserve" xmlns:serif="http://www.serif.com/" style="fill-rule:evenodd;clip-rule:evenodd;stroke-linejoin:round;stroke-miterlimit:1.41421;"><path d="M726.998,81.314c157.753,79.24 266.114,242.56 266.114,430.989c0,266.017 -215.972,481.99 -481.99,481.99c-266.018,0 -481.99,-215.973 -481.99,-481.99c0,-178.302 97.027,-334.122 241.116,-417.494l0,412.505c0,99.981 18.924,173.879 56.771,221.696c37.848,47.817 96.483,71.725 175.905,71.725c77.989,0 134.832,-23.072 170.529,-69.217c35.697,-46.145 53.545,-119.876 53.545,-221.195l0,-429.009Zm-366.432,-26.982c47.377,-15.586 97.99,-24.02 150.556,-24.02c47.49,0 93.385,6.884 136.741,19.706l0,461.81c0,76.24 -10.537,130.326 -31.612,162.26c-21.074,31.933 -56.842,47.9 -107.306,47.9c-51.61,0 -89.242,-16.97 -112.897,-50.91c-23.655,-33.94 -35.482,-88.193 -35.482,-162.761l0,-453.985Z" style="fill:#ff9292;fill-opacity:0;"/><path d="M739.192,59.463c90.666,45.911 166.979,119.404 216.05,208.266c56.16,101.701 75.54,223.182 54.379,337.366c-19.011,102.581 -70.803,198.696 -146.03,271.501c-70.471,68.203 -161.041,115.454 -257.344,133.767c-110.627,21.037 -227.896,4.199 -327.922,-47.639c-107.678,-55.804 -194.249,-151.203 -238.993,-264.584c-39.785,-100.814 -45.97,-214.468 -17.437,-319.215c33.917,-124.516 117.243,-234.629 228.764,-301.588c2.338,-1.404 4.688,-2.786 7.046,-4.154l37.543,21.626c0,137.88 -0.103,275.759 0.001,413.638c0.12,54.29 4.578,109.718 25.831,160.721c15.576,37.376 42.576,69.844 80.665,87.416c49.042,22.624 107.373,23.3 154.336,14.679c27.873,-5.117 55.273,-15.493 77.468,-34.08c27.138,-22.726 43.46,-56.402 53.114,-91.231c12.186,-43.96 15.303,-90.239 15.335,-135.638l0,-429l36.246,-22.328c0.316,0.159 0.632,0.318 0.948,0.477Zm12.806,450.869c-0.041,58.017 -4.572,116.279 -24.237,171.45c-12.582,35.296 -32.582,68.584 -60.916,92.727c-53.481,45.568 -132.339,55.748 -198.469,49.704c-46.008,-4.204 -92.206,-18.331 -129.102,-47.693c-19.346,-15.396 -35.612,-34.63 -48.205,-55.807c-24.541,-41.272 -36.119,-88.993 -41.647,-136.349c-2.936,-25.153 -4.117,-50.532 -4.173,-75.842l-0.001,-1.199l0,-366.646c-97.286,69.792 -164.209,176.669 -184.396,293.157c-17.238,99.474 -0.915,204.054 47.142,293.764c46.832,87.423 123.035,159.133 213.258,200.45c107.244,49.111 233.919,54.325 344.952,14.221c100.88,-36.437 187.782,-109.504 241.342,-202.599c69.68,-121.113 79.699,-274.533 24.912,-404.519c-36.387,-86.332 -99.83,-160.786 -180.022,-210.915l-0.438,-0.272c0,128.789 0,257.579 0,386.368Zm-239.706,-505.018c47.909,0.163 96.128,7.134 141.591,20.415l18.98,5.591c0,160.782 0.262,321.564 -0.002,482.345c-0.121,44.938 -2.751,89.34 -16.105,131.538c-13.14,41.523 -41.112,77.777 -86.147,92.754c-21.542,7.163 -44.465,9.446 -66.983,8.976c-36.208,-0.756 -73.423,-10.047 -102.304,-33.621c-33.215,-27.11 -50.348,-70.266 -58.296,-112.878c-5.649,-30.286 -7.441,-61.163 -7.46,-92.109l0,-472.11l18.356,-6.014c49.646,-16.131 102.302,-24.652 155.259,-24.885c1.037,-0.003 2.074,-0.003 3.111,-0.002Zm-1.754,49.999c-42.273,0.079 -84.328,5.917 -124.972,17.489c0,145.732 -0.269,291.465 0.002,437.197c0.118,37.762 2.426,75.932 14.385,112.16c8.808,26.686 24.611,51.28 50.95,63.672c28.352,13.34 61.784,14.33 91.93,7.916c19.68,-4.188 38.739,-14.229 50.633,-30.654c14.89,-20.56 20.546,-46.75 24.351,-72.315c3.89,-26.134 5.031,-52.577 5.046,-78.957l0,-442.729c-35.854,-9.019 -72.878,-13.567 -109.629,-13.775c-0.899,-0.003 -1.798,-0.005 -2.696,-0.004Z" style="fill:#fff;fill-rule:nonzero;"/></svg>